<svg width="599" height="584" viewBox="0 0 599 584" fill="none" xmlns="http://www.w3.org/2000/svg">
<g clip-path="url(#clip0)">
<path d="M820.344 941.155C800.996 934.939 781.647 930.595 761.763 927.654C746.967 910.877 733.242 893.165 719.585 875.252C716.438 871.108 711.551 868.903 706.328 870.507C704.923 870.975 703.517 871.309 702.044 871.71C695.483 872.713 688.989 873.849 682.561 875.319C672.787 876.656 662.945 877.725 653.103 878.795C650.559 875.453 648.149 872.111 645.471 868.836C631.077 851.191 616.013 833.545 604.832 814.028C599.476 804.604 575.04 782.948 574.37 782.414C574.37 782.079 574.035 781.745 573.701 782.013C573.5 782.213 573.299 782.414 573.098 782.614C572.964 782.614 572.83 782.681 572.763 782.681C572.897 782.48 573.165 782.347 573.299 782.146C573.433 782.012 573.232 781.812 573.031 781.879C568.612 783.75 564.395 785.889 559.976 787.627C557.03 788.763 554.419 789.899 552.678 791.971C545.381 785.555 538.016 779.205 531.522 771.987C523.488 763.097 518.266 751.935 512.04 741.976C504.742 730.213 492.691 709.225 481.845 698.732H481.778C481.376 698.464 480.774 698.397 480.305 698.798C479.971 699.066 479.703 699.333 479.368 699.6L477.226 700.402C476.623 700.603 476.087 700.803 475.552 701.004C475.485 701.004 475.418 701.071 475.351 701.071C475.15 701.071 475.016 701.138 474.882 701.138C474.213 701.205 473.543 701.338 472.941 701.539C471.736 701.606 470.664 702.14 469.66 702.809C469.192 703.009 468.79 703.343 468.321 703.611C467.049 702.875 465.108 701.873 463.099 700.87C456.538 688.906 450.245 676.808 444.621 664.443C437.323 648.469 425.875 622.936 410.677 611.641C403.648 606.427 401.237 609.97 394.208 604.489C393.605 598.674 393.07 592.792 392.601 586.977C391.664 575.748 389.722 565.121 384.098 554.961C378.876 545.671 370.909 537.65 363.812 529.496C356.783 521.475 352.766 513.856 350.958 503.763C348.615 490.796 343.526 479.701 336.898 468.004C331.007 457.711 325.584 447.084 320.429 436.457C315.809 426.899 312.596 415.803 305.164 407.649C303.892 397.69 291.774 390.004 285.414 382.25C284.276 380.914 283.071 379.243 281.799 377.438C281.665 377.237 281.598 377.104 281.464 376.97C280.259 375.232 278.987 373.361 277.648 371.356C277.447 371.088 277.246 370.821 277.112 370.487C276.242 369.15 275.371 367.746 274.501 366.343C274.166 366.209 273.832 366.075 273.497 365.942C270.618 365.006 270.886 357.253 268.074 356.317C265.195 355.448 262.718 354.579 260.107 353.978L285.615 196.172C286.686 195.77 287.69 195.169 288.36 193.899C290.1 190.557 290.502 187.482 289.966 183.806C289.766 182.603 289.096 181.4 288.159 180.531L294.653 140.361C304.562 143.837 319.692 177.457 326.186 180.799C351.025 193.632 363.745 180.799 384.366 189.421C405.79 199.914 420.988 208.269 446.629 196.439C460.622 189.956 468.991 185.812 485.996 190.022C511.035 196.238 550 212.681 550.335 213.215C535.204 193.899 555.155 160.012 545.381 147.446C541.029 141.898 542.502 137.22 545.715 131.071C550.737 121.446 579.86 87.2245 581.467 86.6898C581.333 86.6898 568.612 85.6872 567.073 85.5535C557.231 84.6178 548.46 84.952 539.69 87.3581C524.425 85.9545 510.232 83.9494 495.168 78.3349C485.661 74.7925 477.293 69.5122 467.518 66.6382C459.953 64.3656 450.58 67.2397 443.148 68.9107C440.671 69.4454 438.194 69.6459 435.784 70.0469C423.465 70.2474 410.945 70.849 398.961 70.2475C395.681 69.9133 392.4 69.5791 388.985 69.178C367.294 66.5045 348.749 57.2139 343.192 34.7561C341.25 26.8691 338.371 22.3241 332.413 17.0439C327.726 12.8999 321.366 11.6299 315.541 12.2983L317.416 0.735225L312.529 0L302.486 61.8926L289.431 142.433L283.606 178.526C283.138 178.526 282.803 178.593 282.401 178.66C281.866 178.459 281.263 178.392 280.66 178.727C278.317 179.796 276.71 181.2 275.371 183.071C274.702 182.67 273.898 182.403 272.894 182.603C272.225 182.737 271.622 182.937 271.02 183.138C266.467 182.67 258.634 182.135 253.211 182.804C252.809 178.259 250.935 173.914 248.391 170.038C244.909 159.678 240.825 145.575 239.084 143.102C237.076 140.228 236.473 139.425 233.327 138.356C232.791 137.821 232.256 137.353 231.519 137.153C230.113 136.819 228.908 136.618 227.502 136.685C227.368 136.351 227.234 135.95 227.1 135.616C225.36 131.472 219.87 130.803 215.92 130.469C215.853 130.469 215.786 130.536 215.719 130.536C215.518 130.402 211.836 131.204 212.438 128.731C213.777 125.724 215.987 118.438 216.656 113.024C217.46 106.474 211.233 98.5202 204.003 98.4534C199.316 98.3865 192.086 98.4534 189.675 108.078C187.399 117.302 189.408 124.32 189.541 124.988C189.541 125.122 188.069 125.59 188.135 125.724C188.135 125.79 182.579 125.456 179.834 126.592C179.03 126.927 176.486 122.181 175.147 120.176C171.13 114.094 167.515 113.492 163.967 107.343C164.234 106.608 160.15 97.785 159.883 95.2451C159.347 89.6307 153.589 69.9133 151.782 58.8849C151.514 57.0802 152.518 56.4118 151.246 54.2062C153.388 48.9927 153.188 50.0622 155.062 47.4555C156.066 46.1187 155.531 42.9773 152.585 39.7022C151.313 35.9592 152.652 36.5608 147.028 36.3602C144.551 36.2934 144.082 35.9592 140.266 41.3731C138.593 43.7793 139.998 47.3218 140.199 50.7974C139.463 54.273 140.936 56.4787 140.802 58.6175C140.132 76.0624 142.275 98.7876 143.882 105.405C145.354 111.353 143.882 112.623 148.434 117.502C148.769 118.572 149.104 119.708 149.572 120.844C151.447 124.988 153.522 129.132 155.397 133.343C156.937 135.95 160.083 146.711 161.891 148.983C162.695 156.67 163.833 155.868 165.573 163.354C167.046 170.038 167.716 176.788 168.653 183.539C168.519 193.899 166.511 216.758 166.377 217.359C165.573 221.102 169.59 223.442 173.54 225.046C171.599 231.195 170.929 237.946 170.595 244.095C169.992 254.589 167.113 267.823 170.461 278.183C170.662 281.19 171.197 283.998 172.603 286.337C171.733 290.347 171.063 294.825 171.398 298.903C170.795 301.242 170.26 303.648 169.724 305.653C167.515 313.941 165.038 321.628 164.837 330.25C164.703 335.263 166.176 339.741 165.707 344.821C162.494 349.433 160.82 355.181 164.368 358.322C164.301 358.389 164.301 358.456 164.234 358.523C162.226 359.726 160.351 361.263 158.544 362.733C156 364.805 154.861 367.212 154.794 370.019C147.43 370.019 141.806 369.952 139.798 370.086C126.809 393.412 94.1377 511.115 91.9283 513.655C82.2206 524.684 67.4247 532.571 61.8678 545.805C61.2653 545.738 60.6627 545.738 60.0601 545.671C56.3109 545.47 48.7456 544.201 48.6117 544.267C48.4778 544.134 48.277 544.334 47.9422 544.668C47.8752 544.735 47.7413 544.869 47.6744 545.003C47.4066 545.337 47.2058 545.738 46.871 546.273C46.7371 546.473 46.6702 546.607 46.6032 546.807C46.2015 547.542 45.7998 548.344 45.3312 549.28C45.3312 549.347 45.2642 549.414 45.2642 549.481C44.8625 550.35 44.4608 551.285 44.0591 552.221C43.9921 552.355 43.9922 552.422 43.9252 552.555C43.0549 554.627 42.2515 556.632 41.7828 558.036C40.7116 561.579 39.9082 565.255 39.3726 568.864C38.904 571.671 38.4353 574.412 37.9667 577.085C33.2802 584.17 30.6691 592.725 27.6564 600.345C24.2419 609.034 20.7605 617.723 17.2791 626.412C16.8774 627.348 16.5427 628.284 16.141 629.219C10.1154 644.458 2.88486 660.032 -2.20334 675.806C-5.88559 681.888 -9.83563 687.904 -13.4509 694.053C-14.5891 695.991 -15.6603 697.929 -16.6646 699.935C-16.5976 699.935 -16.5976 699.868 -16.5306 699.868C-19.6773 705.883 -22.69 711.899 -26.1714 717.781C-27.5104 719.986 -28.9164 722.125 -30.4562 724.264C-32.13 726.536 -33.8707 728.742 -35.8123 730.814C-37.4191 732.084 -39.0258 733.287 -40.6326 734.423C-47.7963 739.369 -55.4955 742.511 -63.3287 745.853C-64.5338 745.986 -65.7389 746.053 -67.0109 746.053C-67.1448 745.986 -67.3457 745.986 -67.4796 745.986C-70.1576 745.318 -72.8356 744.249 -75.5136 743.447C-75.5136 743.447 -75.5136 743.447 -75.4467 743.447C-75.9153 743.313 -76.3839 743.246 -76.8526 743.112C-77.5221 742.912 -78.2585 742.711 -78.928 742.645C-78.995 742.645 -78.995 742.645 -79.0619 742.645C-79.0619 742.645 -79.062 742.645 -79.1289 742.645C-80.334 742.444 -81.4721 742.377 -82.6772 742.444C-82.945 742.444 -83.012 742.711 -82.945 742.912C-83.012 742.912 -84.0162 744.449 -85.2883 746.454C-85.4891 746.789 -85.7569 747.19 -86.0247 747.591C-87.6985 750.264 -89.707 753.472 -91.046 755.478C-91.6485 755.678 -92.3181 755.879 -92.9206 756.079C-95.1299 756.079 -97.2723 756.28 -99.6826 756.48C-99.8834 756.48 -101.289 759.956 -103.365 765.236C-118.562 770.516 -132.421 778.069 -142.798 791.57C-154.381 806.609 -170.583 823.72 -183.236 842.1C-183.638 842.635 -184.106 843.17 -184.508 843.705C-191.739 845.309 -198.769 846.913 -205.397 848.049C-219.791 850.522 -232.244 852.928 -239.675 863.288C-250.387 864.224 -261.166 864.224 -272.414 862.219C-275.158 861.751 -277.435 862.954 -278.841 865.294C-281.519 869.772 -284.398 874.049 -287.276 878.327C-289.887 880.6 -292.432 882.872 -294.909 885.278C-302.474 891.762 -309.504 899.314 -315.998 906.934C-317.605 908.672 -319.212 910.343 -320.885 912.014C-326.643 915.69 -332.267 919.633 -337.556 924.045C-338.962 925.181 -339.899 926.518 -340.77 927.855C-353.758 932.065 -366.144 937.346 -379.4 941.022C-389.777 943.896 -400.824 944.497 -407.251 953.721C-408.858 956.06 -410.866 958.4 -412.942 960.806C-439.454 965.351 -468.979 970.364 -474 971.166V1088.13H865V946.101C865 945.968 824.562 942.559 820.344 941.155ZM226.364 368.615C221.343 369.818 201.793 370.086 182.378 370.086C182.512 368.816 182.78 367.479 182.646 366.343C182.646 366.343 182.646 366.343 182.646 366.276C183.248 365.741 183.717 365.14 184.185 364.605C184.989 363.469 185.19 362.266 184.922 361.196C185.658 359.926 186.261 358.656 186.529 357.186C186.997 354.78 186.06 352.173 185.324 349.9C185.792 348.296 186.261 346.625 186.863 345.021C188.002 342.013 190.345 340.343 191.148 336.934C192.019 333.258 192.822 328.044 192.019 323.767C192.487 322.296 192.822 320.892 192.889 319.422C193.224 310.599 193.425 301.108 192.42 292.018C198.446 282.46 200.187 269.226 203.601 258.532C203.869 257.73 204.137 256.727 204.471 255.792C205.877 262.743 208.823 269.427 211.97 276.244C214.112 280.923 216.321 287.072 219.401 292.352C220.272 295.226 221.811 297.699 223.15 300.239C223.418 304.584 222.146 308.928 222.079 313.407C222.079 314.743 221.878 321.36 223.284 325.504C223.284 328.779 224.088 332.456 224.422 334.661C225.628 343.283 224.556 353.376 227.569 361.664C226.565 363.736 226.565 366.476 226.364 368.615ZM255.219 353.376C254.684 353.777 253.88 354.646 252.876 355.715C252.809 355.448 252.809 355.181 252.675 354.847C252.006 352.841 250.332 351.906 248.725 350.903C248.123 350.101 247.453 349.366 246.784 348.564C247.922 345.289 248.458 341.679 248.926 338.872C249.529 335.33 246.516 330.985 245.244 327.911C247.922 323.432 246.516 316.548 246.248 311.736C245.913 305.453 246.717 297.967 245.11 291.684C248.123 282.059 244.24 271.432 241.361 261.874C237.745 249.776 234.867 236.609 230.381 224.645C231.385 223.575 232.189 222.239 232.523 220.634C233.394 218.696 233.929 216.691 234.264 214.686C233.327 203.323 233.126 192.028 233.126 180.665C234.934 185.611 237.411 190.357 240.423 194.768C240.825 195.369 241.093 197.642 241.763 198.11C242.097 199.38 242.968 198.845 243.436 199.981C244.307 202.053 246.114 202.989 248.123 202.655C251.738 203.524 256.425 202.789 259.906 202.12C263.923 201.385 268.208 200.583 272.091 199.179C273.296 199.179 274.434 199.046 275.639 198.578C277.112 197.976 278.049 196.974 278.518 195.77C278.92 195.436 279.455 195.236 279.79 194.902C280.058 195.236 280.46 195.369 280.794 195.637L255.286 353.443C255.286 353.376 255.286 353.376 255.219 353.376Z" fill="url(#paint0_linear)"/>
<g opacity="0.3">
<path opacity="0.3" d="M231.033 463.762L209.124 441.801L165 397L206.161 445.928L191.874 464.942H201.635L211.109 451.807L222.158 464.942H231.919L231.098 463.847L231.033 463.762Z" fill="#B28228"/>
<path opacity="0.3" d="M232.761 423.89H223.052L213.461 437.166L201.86 423.89H194.266L256.892 486.863L218.482 442.908L232.761 423.89Z" fill="#B28228"/>
</g>
<path d="M231.537 463.895L209.628 441.933L165.504 397.137L206.664 446.061L192.378 465.079H202.138L211.613 451.944L222.662 465.079H232.423L231.602 463.983L231.537 463.895Z" fill="#B28228"/>
<path d="M231.537 463.895L209.628 441.933L165.504 397.137L206.664 446.061L192.378 465.079H202.138L211.613 451.944L222.662 465.079H232.423L231.602 463.983L231.537 463.895Z" fill="url(#paint1_linear)"/>
<path d="M233.261 424.027H223.556L213.965 437.303L202.36 424.027H194.766L257.396 487L218.982 443.045L233.261 424.027Z" fill="#B28228"/>
<path d="M233.261 424.027H223.556L213.965 437.303L202.36 424.027H194.766L257.396 487L218.982 443.045L233.261 424.027Z" fill="url(#paint2_linear)"/>
</g>
<defs>
<linearGradient id="paint0_linear" x1="195.5" y1="0" x2="195.5" y2="612" gradientUnits="userSpaceOnUse">
<stop stop-color="#000F1E"/>
<stop offset="1"/>
</linearGradient>
<linearGradient id="paint1_linear" x1="198.986" y1="393.829" x2="198.986" y2="470.835" gradientUnits="userSpaceOnUse">
<stop offset="0.01" stop-color="#BF832B"/>
<stop offset="0.05" stop-color="#C28831"/>
<stop offset="0.1" stop-color="#CA9743"/>
<stop offset="0.17" stop-color="#D8AF61"/>
<stop offset="0.24" stop-color="#ECD18B"/>
<stop offset="0.41" stop-color="#EFE8DC"/>
<stop offset="0.73" stop-color="#BF832B"/>
<stop offset="0.95" stop-color="#E6BD83"/>
</linearGradient>
<linearGradient id="paint2_linear" x1="226.102" y1="420.961" x2="226.102" y2="492.336" gradientUnits="userSpaceOnUse">
<stop offset="0.01" stop-color="#BF832B"/>
<stop offset="0.05" stop-color="#C28831"/>
<stop offset="0.1" stop-color="#CA9743"/>
<stop offset="0.17" stop-color="#D8AF61"/>
<stop offset="0.24" stop-color="#ECD18B"/>
<stop offset="0.41" stop-color="#EFE8DC"/>
<stop offset="0.73" stop-color="#BF832B"/>
<stop offset="0.95" stop-color="#E6BD83"/>
</linearGradient>
<clipPath id="clip0">
<rect width="599" height="584" fill="white"/>
</clipPath>
</defs>
</svg>
