<svg width="762" height="186" viewBox="0 0 762 186" fill="none" xmlns="http://www.w3.org/2000/svg">
<path d="M608.05 104.231C606.268 103.324 604.43 102.445 602.592 101.594C602.537 100.998 602.231 100.374 601.618 99.6936C599.14 96.971 594.713 94.4752 589.701 92.2063C567.538 79.4154 545.458 67.532 523.406 56.4428C513.967 51.7065 504.612 46.7433 494.003 43.028C485.817 40.1635 476.462 38.9156 467.691 37.0721C463.543 34.7182 459.505 32.4209 454.744 30.4072C448.285 27.6562 440.85 25.5858 434.474 22.9199C429.518 20.8495 425.536 18.1836 420.942 15.9998C416.292 13.7876 410.78 12.2845 405.239 10.8948C397.805 9.05128 389.981 8.42733 382.686 7.40633C378.008 5.6763 373.72 3.9179 368.179 3.57757C367.65 3.43576 367.093 3.32232 366.564 3.18051C365.395 2.61329 364.253 2.0177 363.195 1.28031C362.555 0.854896 361.079 0.826535 360.661 1.3654C355.037 9.07964 345.654 15.7445 337.607 22.8065C334.127 23.9125 331.983 25.8978 329.978 27.7129C328.029 29.4997 326.832 31.2297 325.885 33.1016C325.105 33.6971 324.326 34.3211 323.546 34.9167C320.706 34.6614 317.978 34.548 315.527 34.6047C314.274 34.6331 312.91 35.0301 312.437 35.6824C306.2 43.9072 297.68 51.4513 289.215 59.1088C284.426 63.4197 279.582 67.7306 274.848 72.0982C271.451 75.2179 267.442 78.3377 264.296 81.6559C262.152 83.3859 260.035 85.1443 257.947 86.9311C254.523 89.8523 253.938 92.972 256.722 96.347C258.337 98.2756 261.233 99.1548 264.156 98.9846C265.437 99.4667 266.996 99.8071 268.862 99.8638C273.595 100.034 278.329 100.289 283.09 100.544C285.373 101.31 288.018 101.594 290.552 100.998C323.853 103.125 365.534 137.017 401.925 140.619C424.896 142.888 461.844 156.246 485.929 156.87C497.512 157.182 517.754 162.287 530.228 161.578C537.244 162.343 583.631 185.94 591.038 185.968C618.63 186.025 705.195 164.726 731.535 161.067C737.354 160.301 612.755 106.642 608.05 104.231Z" fill="black"/>
<path d="M682.841 77.8589C681.7 77.2349 680.558 76.6394 679.361 76.0438C679.389 75.6183 679.277 75.1646 678.943 74.7108C677.579 72.8106 674.795 71.0806 671.593 69.5207C657.754 60.672 643.861 52.4473 629.883 44.7897C623.897 41.5282 617.994 38.0965 611.061 35.544C605.715 33.5871 599.283 32.7929 593.381 31.5734C590.791 29.9568 588.257 28.3686 585.195 26.9789C581.018 25.0787 576.09 23.689 571.969 21.8739C568.767 20.4558 566.345 18.6124 563.393 17.1092C560.442 15.5777 556.739 14.5567 553.035 13.6491C548.052 12.4013 542.65 12.0326 537.666 11.3803C534.603 10.1891 531.819 8.99791 528.004 8.79939C527.642 8.7143 527.28 8.62922 526.918 8.54414C526.167 8.14708 525.471 7.72166 524.802 7.23952C524.413 6.95591 523.382 6.92755 523.02 7.3246C518.009 12.8267 510.491 17.6197 503.892 22.6964C501.302 23.4905 499.521 24.9085 497.85 26.2415C496.235 27.5178 495.149 28.7373 494.23 30.0703C493.59 30.4957 492.977 30.9495 492.337 31.3749C490.388 31.2331 488.467 31.1764 486.74 31.2047C485.849 31.2331 484.847 31.5167 484.402 31.9988C478.889 37.8696 471.872 43.2866 464.883 48.7603C460.93 51.8517 456.948 54.943 452.994 58.0628C450.182 60.2749 446.924 62.5438 444.251 64.8978C442.497 66.1457 440.771 67.3936 439.073 68.6699C436.288 70.7686 435.425 72.9808 436.929 75.3347C437.792 76.6961 439.713 77.2917 441.773 77.1498C442.609 77.4902 443.667 77.7171 444.948 77.7454C448.233 77.8305 451.546 77.944 454.86 78.1141C456.363 78.653 458.173 78.7948 460.039 78.3694C483.149 79.5889 507.818 103.185 532.905 105.426C548.748 106.844 572.888 115.976 589.733 116.203C597.835 116.317 611.367 119.748 620.222 119.153C625.066 119.635 654.413 135.943 659.648 135.886C679.027 135.687 742.816 119.89 761.833 117.082C766.037 116.402 685.821 79.5038 682.841 77.8589Z" fill="black"/>
<g clip-path="url(#clip0)">
<path d="M95.9518 86.0338C97.0624 85.5236 98.2078 85.0293 99.3532 84.551C99.3879 84.2162 99.5788 83.8654 99.9606 83.4828C101.505 81.9522 104.264 80.5492 107.388 79.2737C121.202 72.0831 134.964 65.4028 148.708 59.1688C154.591 56.5062 160.422 53.7161 167.034 51.6275C172.136 50.0172 177.967 49.3157 183.434 48.2794C186.019 46.956 188.536 45.6646 191.503 44.5326C195.529 42.9861 200.163 41.8222 204.137 40.3235C207.226 39.1596 209.708 37.6609 212.571 36.4333C215.469 35.1897 218.905 34.3447 222.359 33.5634C226.992 32.5271 231.869 32.1763 236.416 31.6024C239.331 30.6298 242.004 29.6413 245.457 29.45C245.787 29.3703 246.134 29.3065 246.464 29.2268C247.192 28.9079 247.904 28.5731 248.563 28.1585C248.962 27.9194 249.882 27.9034 250.143 28.2064C253.648 32.543 259.496 36.2898 264.512 40.2597C266.681 40.8815 268.017 41.9976 269.267 43.018C270.482 44.0224 271.228 44.995 271.818 46.0472C272.304 46.3821 272.79 46.7328 273.276 47.0676C275.046 46.9241 276.746 46.8604 278.273 46.8923C279.054 46.9082 279.905 47.1314 280.2 47.4981C284.087 52.1218 289.397 56.3627 294.673 60.6675C297.658 63.0909 300.678 65.5144 303.628 67.9697C305.745 69.7235 308.244 71.4773 310.205 73.3427C311.541 74.3152 312.86 75.3037 314.162 76.3082C316.296 77.9504 316.661 79.7042 314.925 81.6014C313.919 82.6856 312.114 83.1799 310.292 83.0842C309.493 83.3552 308.522 83.5466 307.359 83.5785C304.409 83.6741 301.459 83.8176 298.491 83.9611C297.068 84.3916 295.419 84.551 293.84 84.2162C273.085 85.412 247.106 104.465 224.424 106.489C210.107 107.765 187.078 115.274 172.067 115.625C164.847 115.8 152.231 118.67 144.456 118.272C140.083 118.702 111.171 131.967 106.555 131.983C89.3572 132.015 35.4035 120.041 18.9865 117.985C15.3596 117.554 93.019 87.389 95.9518 86.0338Z" fill="black"/>
<path d="M49.3357 71.2075C50.0472 70.8568 50.7587 70.522 51.5049 70.1872C51.4876 69.948 51.557 69.6929 51.7653 69.4378C52.6156 68.3696 54.351 67.397 56.3467 66.5201C64.9717 61.5457 73.6313 56.9221 82.3431 52.6173C86.0742 50.7838 89.7533 48.8546 94.0744 47.4197C97.4064 46.3196 101.415 45.8732 105.094 45.1876C106.708 44.2788 108.287 43.386 110.196 42.6047C112.799 41.5365 115.871 40.7553 118.44 39.7349C120.435 38.9377 121.945 37.9014 123.785 37.0564C125.624 36.1954 127.932 35.6215 130.24 35.1113C133.347 34.4097 136.713 34.2025 139.82 33.8358C141.729 33.1661 143.464 32.4965 145.842 32.3849C146.067 32.3371 146.293 32.2892 146.518 32.2414C146.987 32.0182 147.421 31.7791 147.837 31.508C148.08 31.3486 148.722 31.3326 148.948 31.5558C152.072 34.6489 156.757 37.3434 160.87 40.1973C162.484 40.6437 163.595 41.4409 164.636 42.1902C165.643 42.9077 166.319 43.5933 166.892 44.3426C167.291 44.5818 167.673 44.8369 168.072 45.076C169.287 44.9963 170.484 44.9644 171.56 44.9803C172.116 44.9963 172.74 45.1557 173.018 45.4268C176.454 48.7271 180.827 51.7723 185.183 54.8494C187.647 56.5873 190.129 58.3251 192.593 60.0789C194.346 61.3225 196.377 62.598 198.043 63.9213C199.136 64.6228 200.212 65.3244 201.27 66.0418C203.006 67.2216 203.544 68.4652 202.607 69.7886C202.069 70.5539 200.871 70.8887 199.587 70.809C199.066 71.0003 198.407 71.1278 197.609 71.1438C195.561 71.1916 193.496 71.2554 191.431 71.351C190.494 71.654 189.366 71.7337 188.203 71.4945C173.799 72.1801 158.423 85.4452 142.787 86.7047C132.913 87.5019 117.867 92.6357 107.368 92.7633C102.318 92.8271 93.8835 94.7562 88.3649 94.4214C85.3453 94.6925 67.0542 103.86 63.7916 103.828C51.7132 103.717 11.955 94.8359 0.102234 93.2575C-2.51823 92.8749 47.4788 72.1323 49.3357 71.2075Z" fill="black"/>
</g>
<defs>
<clipPath id="clip0">
<rect width="316" height="104" fill="white" transform="matrix(-1 0 0 1 316 28)"/>
</clipPath>
</defs>
</svg>
